<svg width="32" height="32" viewBox="0 0 32 32" fill="none" xmlns="http://www.w3.org/2000/svg">
<path d="M10.8897 32C5.71845 32 2.53613 28.1989 2.53613 21.9227C2.53613 11.5359 11.2433 0 20.9671 0C24.5914 0 25.8394 2.11115 27.1211 2.11115C27.9167 2.11115 28.6681 1.53656 29.1543 0.608384L29.4637 0.652582C28.0493 3.26032 26.5465 7.9896 25.6184 12.7189H25.309C26.4581 4.98408 25.2102 0.39779 20.7461 0.39779C13.4091 0.39779 5.63006 11.4917 5.63006 21.9668C5.63006 27.8453 8.10519 31.2486 12.3925 31.2486C16.1936 31.2486 18.9339 28.2431 20.6577 22.1878L20.7019 22.0552C22.514 15.6022 21.4533 15.5138 16.9892 15.337V14.9834C19.6411 15.0276 25.4312 15.0718 28.2157 14.9834V15.337C26.1383 15.5138 25.387 15.6022 23.5748 22.0552L20.8787 31.4696H20.5693L21.4091 25.5912C18.8013 29.6133 15.0002 32 10.8897 32Z" fill="#0F1108"/>
</svg>
