<svg width="256" height="256" viewBox="0 0 256 256" fill="none" xmlns="http://www.w3.org/2000/svg">
<path d="M87.1188 256C45.7486 256 20.29 225.591 20.29 175.381C20.29 92.2873 89.9475 0 167.738 0C196.732 0 206.716 16.8892 216.97 16.8892C223.335 16.8892 229.346 12.2925 233.235 4.86707L235.71 5.22066C224.395 26.0825 212.373 63.9168 204.948 101.751H202.473C211.666 39.8726 201.682 3.18232 165.97 3.18232C107.273 3.18232 45.0414 91.9337 45.0414 175.735C45.0414 222.762 64.8425 249.989 99.1409 249.989C129.55 249.989 151.472 225.945 165.262 177.503L165.616 176.442C180.113 124.818 171.627 124.111 135.914 122.696V119.867C157.13 120.221 203.45 120.575 225.727 119.867V122.696C209.108 124.111 203.097 124.818 188.599 176.442L167.03 251.757H164.555L171.273 204.729C150.412 236.906 120.003 256 87.1188 256Z" fill="#0F1108"/>
</svg>
